<svg version="1.1" preserveAspectRatio="none" xmlns="http://www.w3.org/2000/svg" width="500" height="500" viewBox="0 0 500 500"><rect width="100%" height="100%" fill="#FFFFFF" fill-opacity="1"/><svg viewBox="127.0758 320.0553 487.1828 114" width="333" height="77.9214701340031" x="83.5px" y="211.0393px" xmlns="http://www.w3.org/2000/svg" xmlns:xlink="http://www.w3.org/1999/xlink" preserveAspectRatio="none"><defs></defs><style>.companyName {fill:#4D4D4D;fill-opacity:1;}.icon1 {fill:#FF834F;fill-opacity:1;}.icon2 {fill:#FF4949;fill-opacity:1;}.icon3 {fill:#FFAE78;fill-opacity:1;}.icon3-str {stroke:#FFAE78;stroke-opacity:1;}.shapeStroke-str {stroke:#313131;stroke-opacity:1;}</style><g opacity="1" transform="rotate(0 127.0758 332.0553)">
<svg width="77.9436" height="90" x="127.0758" y="332.0553" version="1.1" preserveAspectRatio="none" viewBox="17.522998809814453 12.5 64.9530029296875 75">
  <g transform="matrix(1 0 0 1 0 0)" class="icon1"><g><path d="M82.474,31.249L49.999,12.5L17.526,31.248l-0.003,0.002v37.501L49.999,87.5L50,87.499l32.476-18.748V31.25L82.474,31.249z    M79.654,67.121L50,84.24V72.259L50,72.26L30.722,61.131v-22.26l0.002-0.002l9.721,5.612h0.001L50,38.965l9.555,5.517h0.001   l0.001,0.001v11.035L50,61.034v11.225l19.278-11.128v-22.26l-0.002-0.001l-0.001-0.001L50,27.74L30.724,38.869l-10.376-5.991   l29.651-17.12l29.652,17.12l0.003,0.002V67.121z"></path><polygon points="40.443,44.483 40.443,55.518 50,61.035 50,61.034 50,50 40.444,44.482  "></polygon></g></g>
</svg>
</g><g opacity="1" transform="rotate(0 243.0194 347.0553)">
<svg width="371.2392" height="60" x="243.0194" y="347.0553" version="1.1" preserveAspectRatio="none" viewBox="3.32 -28 173.24 28">
  <g transform="matrix(1 0 0 1 0 0)" class="companyName"><path id="id-D6z1nYkh8" d="M15.44-28Q19.16-28 21.90-26.76Q24.64-25.52 26.12-23.24Q27.60-20.96 27.60-17.84L27.60-17.84Q27.60-14.76 26.12-12.46Q24.64-10.16 21.90-8.94Q19.16-7.72 15.44-7.72L15.44-7.72L9.80-7.72L9.80 0L3.32 0L3.32-28L15.44-28ZM15.08-13Q18-13 19.52-14.26Q21.04-15.52 21.04-17.84L21.04-17.84Q21.04-20.20 19.52-21.46Q18-22.72 15.08-22.72L15.08-22.72L9.80-22.72L9.80-13L15.08-13Z M32.20 0L32.20-28L38.68-28L38.68 0L32.20 0Z M70.44 0L62.96 0L56.20-9.72L49.56 0L42.12 0L52.48-14.24L42.64-28L50-28L56.44-18.92L62.76-28L69.76-28L60-14.48L70.44 0Z M79.44-5.20L94.68-5.20L94.68 0L73 0L73-28L94.16-28L94.16-22.80L79.44-22.80L79.44-16.72L92.44-16.72L92.44-11.68L79.44-11.68L79.44-5.20Z M99.84 0L99.84-28L106.32-28L106.32-5.28L120.36-5.28L120.36 0L99.84 0Z M122.76-8.76L122.76-13.76L134.08-13.76L134.08-8.76L122.76-8.76Z M160.36 0L157.88-6L144.88-6L142.40 0L135.76 0L148.24-28L154.64-28L167.16 0L160.36 0ZM146.96-10.92L155.84-10.92L151.40-21.64L146.96-10.92Z M170.08 0L170.08-28L176.56-28L176.56 0L170.08 0Z"/></g>
</svg>
</g><g opacity="1" transform="rotate(0 223.0194 320.0553)">
<svg width="4" height="114" x="223.0194" y="320.0553" version="1.1" preserveAspectRatio="none" viewBox="0 0 4 114">
  <defs><rect x="0" y="0" width="4" height="114" rx="0px" ry="0px" id="id-tBXipXk0b1734858135637"></rect></defs><use class="companyName shapeStroke-str" style="stroke-width:0;" xlink:href="#id-tBXipXk0b1734858135637"></use>
</svg>
</g></svg></svg>